<svg width="47" height="51" viewBox="0 0 47 51" fill="none" xmlns="http://www.w3.org/2000/svg">
<g clip-path="url(#clip0_6_425)">
<path fill-rule="evenodd" clip-rule="evenodd" d="M40.5964 21.5985C39.9553 20.4 38.2724 20.145 37.3374 21.165C36.4292 22.1595 35.0401 22.746 33.5174 22.6185C31.327 22.44 29.5372 20.7825 29.3235 18.666C29.1365 16.83 30.1516 15.198 31.7009 14.382C32.3153 14.076 32.3153 13.2345 31.7009 12.9285C31.6742 12.9285 31.6742 12.903 31.6475 12.903C29.9379 12.036 28.8694 10.302 28.8694 8.46601V2.49901H32.8229C33.5174 2.49901 34.1318 1.98901 34.1853 1.35151C34.212 0.969013 34.0517 0.612013 33.8113 0.382513C33.5709 0.153013 33.2503 0.0255127 32.8763 0.0255127H10.5709C9.84961 0.0255127 9.2085 0.586513 9.2085 1.30051C9.2085 1.63201 9.36878 1.93801 9.58248 2.16751C9.8229 2.39701 10.1435 2.52451 10.5174 2.52451H14.471V3.77401C14.471 3.92701 14.5778 4.02901 14.7381 4.02901H17.9704C18.1841 4.02901 18.3444 4.18201 18.3444 4.38601C18.3444 4.48801 18.291 4.59001 18.2375 4.64101C18.1574 4.71751 18.0773 4.74301 17.9704 4.74301H14.7648C14.6045 4.74301 14.4977 4.84501 14.4977 4.99801V5.68651C14.4977 5.83951 14.6045 5.94151 14.7648 5.94151H17.9971C18.2108 5.94151 18.3711 6.09451 18.3711 6.29851C18.3711 6.40051 18.3177 6.50251 18.2642 6.55351C18.1841 6.63001 18.104 6.65551 17.9971 6.65551H14.7648C14.6045 6.65551 14.4977 6.75751 14.4977 6.91051V7.59901C14.4977 7.75201 14.6045 7.85401 14.7648 7.85401H17.9971C18.2108 7.85401 18.3711 8.00702 18.3711 8.21101C18.3711 8.31301 18.3177 8.41502 18.2642 8.46601C18.1841 8.54251 18.104 8.56801 17.9971 8.56801H14.7381C14.6045 8.56801 14.471 8.67002 14.471 8.79751C14.3374 10.5315 13.2956 12.087 11.6661 12.903C5.06796 16.32 0.553448 22.9755 0.500022 30.6255C0.419882 41.8455 9.79619 50.9235 21.55 51C33.3304 51.0765 42.8937 41.973 42.8937 30.753C42.8937 27.4635 42.0656 24.3525 40.5964 21.5985ZM8.8078 42.891C7.39201 41.871 6.37691 40.4175 5.76251 38.8875C5.65565 38.607 5.73579 38.3265 6.08306 38.3265C7.55229 38.301 8.24683 37.5105 10.4106 37.5105C12.1202 37.5105 12.3606 39.1935 11.586 40.1625C11.0784 40.8 10.2236 41.2335 9.79619 42.534C9.52906 43.2735 9.36878 43.146 8.8078 42.891ZM20.7219 29.2995C20.428 29.1465 19.9472 29.0445 19.4663 29.019C19.1725 29.019 18.8786 29.019 18.6382 29.07C17.1957 29.4525 16.6347 30.957 14.3908 31.0335C14.3374 31.11 14.3908 31.0335 14.3641 31.11L14.4176 31.62C14.4443 31.8495 14.8183 31.9005 15.0854 31.875C15.5395 31.824 16.234 31.6455 16.5546 31.416C17.4361 30.7785 18.1574 30.1155 19.2259 29.988C20.1342 29.9115 20.7486 30.039 21.176 30.2685C22.2979 30.957 22.0041 32.64 21.9239 33.762C21.8972 34.0425 21.8705 34.272 21.8438 34.527C21.7904 34.8075 21.9774 34.986 21.55 35.037L18.9855 35.292C18.6917 35.292 18.4512 35.3175 18.2375 35.496C17.8101 35.955 18.5314 36.3375 19.0122 36.261C19.68 36.1845 20.8821 35.7765 21.5232 36.006C21.8438 36.1335 21.8171 36.2865 21.8171 36.567C21.8438 36.7965 21.8438 38.097 21.7904 38.2245C21.55 38.2755 20.7219 37.842 19.8136 37.9695C19.6266 37.995 19.4396 37.995 19.2526 38.0205C18.9054 38.0715 18.4245 38.2245 17.7033 38.2755C17.169 38.301 17.3026 38.4285 16.6882 38.301C16.2875 38.2245 16.1806 38.2245 15.8334 37.995C15.6196 37.8675 15.0587 37.383 14.9251 37.179C14.5778 36.5415 14.4176 35.649 14.845 35.037C15.5662 33.8895 17.543 33.813 18.104 33.6345C18.3978 33.5325 18.6649 33.456 18.8252 33.201C18.9321 32.9715 18.7718 32.5635 18.5581 32.436C18.2642 32.4615 16.2608 33.1245 15.9135 33.2265C15.7532 33.2775 15.6196 33.2775 15.4861 33.303C14.4176 33.5835 13.8299 34.3995 13.536 35.292C13.4826 35.445 13.5093 35.5725 13.4826 35.7C13.4559 35.853 13.4025 35.955 13.4025 36.0825C13.3223 36.5925 13.5627 37.485 14.0169 37.842C14.1504 37.944 14.1237 37.995 14.2039 38.097C14.7381 38.7345 16.2073 39.2445 17.0354 39.2955C18.4512 39.372 19.2259 38.6835 20.7219 39.066C22.0575 39.3975 21.8705 40.749 21.8705 41.718C21.8705 42.0495 21.9239 43.248 21.8705 43.4775C21.7904 43.8345 20.9088 43.9365 20.4814 44.0895C20.1342 44.217 19.68 44.421 19.3328 44.472C18.9588 44.523 18.5848 44.7525 18.0505 44.7015C17.5163 44.676 17.356 44.7525 17.4094 44.88C17.4629 45.0585 17.9971 45.288 18.291 45.3645C18.5047 45.4155 19.4129 45.4155 19.6266 45.339C19.9739 45.2115 20.3479 45.1095 20.7219 45.0075C21.0157 44.9055 21.5232 44.727 21.8705 44.778C22.0041 45.084 21.9239 46.206 21.8438 46.5375C21.6835 47.124 21.2561 47.379 20.6684 47.5065C20.2677 47.6085 19.0122 47.685 18.6115 47.6595C17.9437 47.6595 17.169 47.6085 16.5279 47.481C15.9669 47.379 15.3525 47.226 14.8984 46.869C14.0169 46.206 14.4176 45.5685 14.5244 44.472C14.5778 43.758 14.6313 42.636 15.4594 42.3045C16.1806 42.024 18.8252 42.2535 19.4396 42.0495C19.7335 41.973 19.9739 41.7435 19.7068 41.4885C19.1725 41.004 17.4361 41.0805 16.7683 41.106C16.234 41.1315 15.3258 41.2845 14.845 41.4885C14.1771 41.769 14.1504 42.1005 13.9367 42.687C13.8833 42.8655 13.7497 43.3245 13.723 43.5285C13.6696 44.013 13.4292 44.8545 13.4292 45.288C13.4025 45.6195 13.4025 45.798 13.2155 46.0785C12.7346 46.0785 11.4257 45.084 11.0517 44.7525C10.6243 44.3955 10.5174 44.0385 10.651 43.5285C10.9983 42.1515 11.9332 41.5395 12.6545 40.4175C13.1353 39.6525 13.3223 38.76 12.8949 37.893C12.5744 37.1535 11.7195 36.4905 10.7846 36.4905C9.04822 36.465 8.78109 36.8475 7.63243 36.975C7.23173 37.026 6.43033 37.2045 6.02964 37.179C4.90769 37.1025 4.42685 36.567 4.07958 35.6745C3.97273 35.4195 3.67888 34.6035 3.89259 34.3995C4.15972 34.3485 5.41524 34.578 5.73579 34.68C6.21663 34.833 7.09816 34.986 7.579 35.0115C8.11326 35.037 11.2654 35.1135 11.5325 34.7055C11.6127 34.3485 11.4257 34.1955 11.025 34.119C10.1969 33.966 9.74276 33.8385 8.88794 34.017C7.65914 34.2465 6.93788 34.0425 5.73579 33.66C5.44195 33.5835 5.04125 33.507 4.7207 33.4305C4.40014 33.354 3.89259 33.507 3.7056 33.2775C3.65217 32.9715 3.75902 32.6655 3.78574 32.334C3.83916 32.0025 3.73231 31.5945 3.81245 31.263C4.02615 31.1865 5.46866 31.3395 5.70908 31.416C6.29677 31.62 9.98318 32.1555 10.277 32.181C11.5325 32.2065 11.4524 31.161 10.2503 31.0845C8.99479 31.0335 8.00641 30.9825 6.53719 30.651C6.08306 30.549 4.82755 30.345 4.58713 30.2685C3.46518 29.8605 3.57203 30.651 3.81245 28.5855C3.86587 28.3305 3.94601 28.203 3.97273 27.9225C4.05287 26.9025 4.40014 27.3615 4.98783 27.489C5.36181 27.5655 5.44195 27.642 5.86936 27.6165C6.3502 27.591 7.33858 27.3105 7.71256 27.438C8.46053 27.7185 7.52557 28.254 9.04822 29.0445C10.1702 29.6565 11.4524 28.866 12.0401 28.0245C12.4675 27.4125 12.7346 26.1885 12.2805 25.551C11.7997 24.888 10.651 24.8115 9.92975 24.4545C9.50234 24.225 9.2085 24.072 8.72766 23.9445C8.1934 23.766 7.84613 23.868 7.41872 24.123C7.52557 24.2505 7.7927 24.3015 7.9797 24.4545C8.48725 24.837 8.86123 25.398 9.58248 25.4745C10.838 25.6275 11.8531 25.5255 11.2921 26.9535C11.1051 27.387 10.9716 27.642 10.651 28.0245C10.464 28.254 9.90304 28.7385 9.58248 28.4835C9.04822 28.0755 9.2085 26.5965 8.1934 26.469C7.07145 26.2905 5.52209 27.1065 5.17482 26.5965C4.26657 25.398 6.02964 23.0265 6.77761 22.0065C7.01802 21.6495 7.31187 21.3945 7.55229 21.063C7.73928 20.859 8.16669 20.298 8.48724 20.298C8.5941 20.4255 8.67424 20.8335 8.70095 21.0375C8.75438 21.216 8.88794 21.471 8.99479 21.6495C9.2085 22.032 9.74276 22.3635 10.1969 22.389C10.4106 22.389 10.8914 22.491 11.0784 22.44C11.2654 22.389 11.1586 22.338 11.4524 22.3635C12.0935 22.4145 13.0285 22.3125 13.4826 22.7715C13.8032 23.1285 13.9901 23.4855 14.3641 23.817C14.658 24.0975 15.3258 24.327 15.7532 24.4035C16.1806 24.4545 17.169 24.633 17.5697 24.633C18.1574 24.633 18.9321 24.7095 18.9054 23.9955C18.1574 23.5875 16.7149 23.613 15.7799 23.307C14.9518 23.0265 14.658 22.134 13.6429 21.726C12.7079 21.3435 10.8113 21.879 10.1435 21.3945C9.74276 21.0885 9.71605 20.757 9.60919 20.3235C9.52906 19.941 9.71605 19.329 9.92975 18.972C10.5976 17.7735 12.9216 16.473 14.2573 15.861C16.234 14.9685 18.2108 14.331 20.4814 14.739C21.7904 14.994 21.9507 15.861 21.9774 16.881C22.0842 20.145 19.3061 17.085 17.356 17.034C15.8066 16.983 15.8601 17.9775 15.0854 18.4875C14.8717 18.6405 13.9901 19.0485 13.9367 19.2015C13.6963 19.686 15.1388 19.4055 15.3525 19.38C16.3142 19.278 16.4478 17.85 17.917 18.36C18.0238 18.411 18.5848 18.5385 18.7184 18.5385L21.737 19.3035C22.0308 19.5075 21.9774 21.369 21.9239 21.624C21.4431 21.777 21.2828 21.8025 20.7486 21.777C20.4547 21.7515 19.7335 21.7005 19.5198 21.5985C18.6649 21.369 18.3711 20.7825 17.8101 20.604C17.1156 20.3745 16.6347 20.757 17.0622 21.2925L17.356 21.6495C17.543 21.828 17.8903 22.1085 18.1307 22.2105C18.6115 22.44 18.7718 22.389 19.1458 22.5165C19.7335 22.695 21.3363 22.4655 21.7637 22.7205C22.0575 22.899 21.9239 23.46 21.8972 23.7405C21.8438 24.072 21.8438 24.5565 21.8438 24.9135C21.7904 25.6785 21.7102 26.214 20.8287 26.4945C20.4547 26.622 19.9472 26.6475 19.5465 26.622C18.9054 26.5965 18.8786 26.5455 18.3711 26.4435C17.9971 26.3925 17.6498 26.265 17.2224 26.1885C16.2608 26.061 16.8752 26.112 15.9936 26.1885C15.2724 26.2395 14.8183 26.775 14.3908 27.234C14.2039 27.438 13.9634 27.744 13.8299 27.9735C13.6696 28.254 13.3757 28.56 13.8299 28.764C14.6045 29.0955 15.032 28.254 15.3525 27.795C15.5929 27.4635 15.5929 27.336 16.0738 27.183C17.0354 26.877 18.0238 27.489 18.9588 27.5655C19.9739 27.642 20.4013 27.6165 21.363 27.3105C21.55 27.2595 21.6835 27.1575 21.8438 27.234C22.2712 27.5655 23.4733 30.498 20.7219 29.2995ZM25.5836 47.736C24.809 47.9145 24.061 47.328 24.061 46.563V35.445C24.061 34.782 24.5418 34.1955 25.2097 34.068C31.6475 32.8185 32.3688 26.163 37.5778 26.214C38.2457 26.214 38.8334 26.673 38.9936 27.3105C39.2875 28.56 39.4478 29.8605 39.4478 31.1865C39.4478 39.27 33.5174 46.0275 25.5836 47.736Z" fill="#FFE600"/>
<path d="M36.9916 18.4038C37.2421 16.9302 36.1938 15.5418 34.6501 15.3026C33.1065 15.0635 31.652 16.0642 31.4014 17.5377C31.1509 19.0113 32.1992 20.3997 33.7429 20.6389C35.2866 20.878 36.741 19.8773 36.9916 18.4038Z" fill="#332E66"/>
<path fill-rule="evenodd" clip-rule="evenodd" d="M42.7866 16.7535C42.7866 17.7735 41.9318 18.5895 40.8633 18.5895C39.7948 18.5895 38.9399 17.7735 38.9399 16.7535C38.9399 15.7335 39.7948 14.9175 40.8633 14.9175C41.9318 14.9175 42.7866 15.7335 42.7866 16.7535Z" fill="#332E66"/>
<path d="M41.6931 5.11852C41.913 3.41325 40.6432 1.86065 38.8568 1.65069C37.0703 1.44073 35.4439 2.65292 35.2239 4.35819C35.004 6.06346 36.2738 7.61607 38.0602 7.82603C39.8467 8.03598 41.4731 6.82379 41.6931 5.11852Z" fill="#332E66"/>
<path fill-rule="evenodd" clip-rule="evenodd" d="M37.551 13.26C37.551 13.872 37.0167 14.382 36.3756 14.382C35.7345 14.382 35.2002 13.872 35.2002 13.26C35.2002 12.648 35.7345 12.138 36.3756 12.138C37.0434 12.138 37.551 12.648 37.551 13.26Z" fill="#332E66"/>
<path d="M44.0691 12.495C45.4116 12.495 46.5 11.4561 46.5 10.1745C46.5 8.89293 45.4116 7.854 44.0691 7.854C42.7265 7.854 41.6382 8.89293 41.6382 10.1745C41.6382 11.4561 42.7265 12.495 44.0691 12.495Z" fill="#332E66"/>
</g>
<defs>
<clipPath id="clip0_6_425">
<rect width="46" height="51" fill="white" transform="translate(0.5)"/>
</clipPath>
</defs>
</svg>
