<?xml version="1.0" standalone="no"?>
<!DOCTYPE svg PUBLIC "-//W3C//DTD SVG 20010904//EN"
 "http://www.w3.org/TR/2001/REC-SVG-20010904/DTD/svg10.dtd">
<svg version="1.0" xmlns="http://www.w3.org/2000/svg"
 width="388.000000pt" height="388.000000pt" viewBox="0 0 388.000000 388.000000"
 preserveAspectRatio="xMidYMid meet">
<metadata>
Created by potrace 1.14, written by Peter Selinger 2001-2017
</metadata>
<g transform="translate(0.000000,388.000000) scale(0.100000,-0.100000)"
fill="#000000" stroke="none">
<path d="M2470 2947 c-3 -2 -28 -7 -57 -11 -68 -8 -203 -51 -276 -88 -58 -29
-65 -29 -152 -12 -54 11 -219 12 -239 2 -27 -15 -11 -23 94 -48 140 -33 140
-34 63 -104 l-64 -59 -52 16 c-29 9 -96 29 -149 46 -123 38 -163 45 -268 45
-78 1 -196 -10 -210 -19 -8 -5 -159 -19 -195 -18 -51 2 -108 13 -121 23 -8 8
-17 6 -29 -7 -16 -16 -16 -17 6 -26 31 -11 119 -26 189 -32 227 -19 312 -35
380 -69 78 -40 92 -109 27 -143 -24 -13 -57 -17 -137 -17 -90 1 -128 7 -265
41 -196 50 -220 55 -315 55 -74 0 -142 -14 -249 -53 -76 -28 -91 -37 -85 -54
5 -11 10 -12 26 -4 45 24 254 30 348 10 111 -23 167 -60 196 -129 28 -65 -6
-120 -89 -143 -49 -14 -159 -16 -272 -5 -86 8 -165 9 -205 1 -14 -3 -36 -7
-50 -10 -14 -3 -40 -8 -57 -11 -23 -4 -33 -12 -33 -24 0 -16 5 -17 66 -5 93
17 204 11 314 -20 180 -49 245 -61 333 -64 18 -1 26 -5 21 -12 -3 -6 5 -4 19
5 20 13 26 14 30 4 4 -10 6 -10 6 0 1 6 10 12 22 12 11 0 18 -4 15 -9 -7 -11
21 -8 31 4 5 4 1 5 -7 0 -8 -5 -12 -4 -7 0 12 14 38 15 30 2 -3 -7 3 -4 14 6
15 13 23 15 28 7 6 -9 9 -9 14 -1 4 6 17 13 30 16 15 3 19 0 14 -8 -4 -7 1 -5
11 3 22 17 44 21 52 9 7 -12 24 -11 24 2 0 5 -6 7 -12 3 -8 -4 -10 -3 -5 2 5
5 17 10 28 10 10 1 20 2 22 3 1 2 13 4 27 7 17 3 20 1 12 -5 -11 -7 -10 -9 3
-14 9 -4 13 -3 10 3 -3 5 3 14 14 19 14 8 20 8 24 -2 3 -9 7 -9 18 0 8 6 45
10 89 10 l75 -2 0 -114 0 -114 -50 -17 c-37 -13 -75 -16 -145 -14 -102 3 -105
4 -225 29 -44 9 -89 19 -100 21 -11 2 -31 6 -45 10 -14 3 -72 7 -130 9 -113 5
-180 -6 -305 -51 -38 -14 -74 -26 -80 -28 -5 -1 -32 -9 -60 -18 -45 -15 -82
-25 -125 -35 -45 -10 -122 -3 -175 16 -79 29 -78 29 -82 10 -10 -43 242 -107
448 -114 31 -1 62 -5 69 -10 9 -5 11 -4 6 3 -4 7 -1 12 9 12 9 0 13 -4 10 -10
-3 -5 -1 -10 4 -10 6 0 11 5 11 11 0 7 9 9 22 6 12 -4 27 -2 34 4 8 7 14 7 19
-1 3 -5 11 -10 16 -10 6 0 7 5 4 10 -10 16 18 7 32 -10 12 -13 12 -13 8 1 -4
10 0 16 10 16 8 0 15 -5 15 -10 0 -6 5 -6 13 0 25 20 190 -9 227 -40 77 -63
57 -156 -45 -207 -41 -20 -64 -24 -135 -24 -106 0 -188 11 -217 29 -18 13 -22
12 -27 -2 -4 -11 0 -21 11 -27 23 -13 118 -44 158 -51 17 -3 37 -8 45 -10 25
-6 114 -18 135 -17 11 1 23 -4 27 -11 6 -9 8 -8 8 2 0 11 5 9 22 -5 15 -12 18
-13 10 -3 -11 14 -9 17 13 17 13 0 23 -4 20 -8 -2 -3 2 -7 10 -7 8 0 12 4 9 9
-8 12 10 10 23 -3 8 -8 13 -7 18 2 6 8 4 10 -5 4 -9 -6 -11 -4 -6 4 6 9 12 8
26 -4 17 -15 18 -15 16 2 -1 12 6 18 21 19 12 1 21 -2 18 -6 -2 -4 2 -7 10 -7
8 0 11 5 8 10 -3 5 0 8 8 5 8 -3 20 2 28 9 7 8 18 12 25 10 6 -2 17 3 25 11
10 10 16 11 19 3 2 -6 8 -11 13 -11 6 0 8 3 6 8 -3 4 1 13 9 20 8 7 14 10 14
7 0 -3 13 1 29 9 22 12 31 12 40 3 10 -9 11 -8 5 6 -5 13 -2 16 12 10 13 -5
15 -3 9 7 -6 10 -4 12 8 7 10 -4 17 -2 17 5 0 6 6 5 17 -3 11 -10 14 -10 9 -1
-5 8 2 16 20 22 15 6 29 8 32 5 3 -3 0 -5 -6 -5 -7 0 -12 -5 -12 -12 0 -6 12
-1 27 13 24 22 26 22 20 4 -7 -18 -6 -19 6 -3 11 14 16 15 26 5 10 -9 11 -8 5
7 -5 13 -4 17 4 12 6 -4 22 -1 34 5 22 12 22 11 8 -7 -14 -19 -14 -19 7 0 22
18 53 16 53 -4 0 -6 -6 -8 -12 -5 -7 4 -1 -3 15 -15 15 -12 27 -28 27 -35 0
-7 5 -15 12 -17 8 -3 8 -9 0 -24 -6 -10 -12 -16 -12 -11 0 4 -11 0 -25 -9 -14
-9 -25 -13 -25 -10 0 4 -8 2 -19 -3 -10 -6 -32 -13 -50 -16 -64 -11 -189 -73
-209 -104 -13 -19 -12 -20 10 -16 12 3 37 8 53 10 17 3 38 8 49 11 13 5 17 2
12 -7 -5 -9 -3 -9 6 1 17 19 38 24 34 7 -1 -6 -1 -9 1 -4 3 4 11 7 19 7 8 0
14 5 14 11 0 5 5 7 10 4 6 -4 7 -11 4 -17 -4 -7 -2 -8 5 -4 6 4 9 12 6 17 -4
5 -2 9 4 9 5 0 16 3 25 6 11 4 16 0 17 -12 0 -15 2 -16 7 -4 6 14 18 16 79 12
40 -3 73 -43 75 -89 3 -83 -75 -145 -230 -184 -91 -23 -206 -32 -233 -18 -21
11 -45 -4 -27 -18 24 -19 142 -43 226 -46 25 -1 31 -5 27 -17 -4 -12 -2 -12 8
2 9 12 18 14 30 7 12 -7 17 -6 17 2 0 8 4 8 15 -1 9 -7 18 -10 22 -6 3 3 1 6
-5 6 -7 0 -12 5 -12 11 0 5 4 7 10 4 20 -12 50 -14 56 -3 4 6 2 8 -4 4 -6 -3
-13 -2 -16 3 -7 11 13 9 33 -3 9 -6 12 -5 8 1 -4 6 0 13 7 16 8 3 17 1 20 -6
2 -7 5 -4 5 6 1 10 9 17 21 17 11 0 20 5 20 10 0 6 5 10 11 10 5 0 7 -6 3 -13
-4 -7 0 -6 12 3 10 8 30 21 43 28 19 11 22 11 16 0 -3 -7 0 -5 8 4 8 10 17 15
20 11 4 -3 7 -2 7 4 0 6 9 13 20 16 13 3 18 1 14 -6 -3 -7 1 -4 9 6 11 13 16
15 20 5 3 -9 11 -6 27 10 21 23 23 23 43 5 11 -10 17 -13 14 -7 -4 7 0 14 7
17 11 4 13 0 11 -15 -3 -11 -2 -18 2 -15 3 4 14 2 24 -4 15 -7 17 -6 13 6 -3
8 -10 12 -15 9 -5 -3 -9 0 -9 6 0 7 7 9 16 6 9 -3 18 -6 20 -6 2 0 4 -8 4 -17
0 -15 2 -16 10 -3 8 13 10 13 10 -1 0 -18 29 -21 49 -5 11 8 13 8 7 -1 -4 -8
-2 -13 4 -13 6 0 8 -5 4 -12 -5 -8 -2 -9 9 -5 11 4 21 -1 29 -16 6 -12 10 -23
9 -25 -2 -2 1 -7 5 -10 4 -4 4 -2 1 4 -4 6 5 22 20 35 25 23 25 23 12 2 -10
-17 -11 -25 -2 -34 8 -8 11 -6 10 7 -1 11 4 18 11 16 6 -1 12 2 12 8 0 5 5 10
12 10 6 0 8 -3 5 -7 -4 -3 -1 -13 6 -21 9 -13 9 -14 0 -8 -19 11 -16 1 4 -15
11 -10 14 -10 9 -2 -5 10 5 13 38 13 26 0 46 -5 46 -11 0 -5 5 -7 10 -4 8 5 7
11 -1 21 -7 8 -7 14 -1 14 14 0 23 -26 16 -48 -5 -13 -4 -14 4 -3 6 8 15 10
23 5 11 -6 11 -5 0 9 -8 10 -11 20 -8 23 8 8 46 -33 39 -42 -4 -4 -2 -4 5 -1
6 4 9 17 7 30 -2 12 -2 16 2 9 3 -6 11 -9 16 -6 7 4 8 2 4 -4 -4 -7 -2 -12 3
-12 6 0 11 5 11 10 0 19 21 10 31 -12 9 -22 9 -22 6 3 -2 16 1 26 9 26 7 0 10
-7 7 -16 -5 -13 -3 -14 8 -3 17 16 37 16 21 0 -7 -7 -12 -17 -12 -22 0 -6 5
-3 11 7 6 9 15 15 21 11 7 -4 8 2 3 17 -7 23 -7 24 9 4 8 -11 16 -16 16 -11 0
5 7 3 15 -4 9 -7 18 -10 22 -6 3 3 1 6 -6 6 -7 0 -10 4 -6 10 3 5 13 6 22 3
10 -4 14 -2 9 5 -3 6 -2 13 4 17 6 4 7 12 4 18 -4 7 -3 8 1 4 13 -11 15 -38 3
-31 -7 4 -8 2 -4 -5 6 -8 12 -9 20 -2 7 6 16 8 19 4 8 -8 38 17 32 27 -3 4 3
7 12 6 10 0 18 4 18 11 0 6 3 15 7 19 4 3 6 -2 4 -13 -4 -16 1 -21 20 -21 13
0 24 4 24 9 0 5 -5 8 -11 7 -6 -2 -13 3 -14 10 -2 7 -1 8 2 2 3 -7 13 -5 26 7
21 18 21 18 7 -1 -14 -18 -13 -19 3 -13 10 4 20 7 23 7 2 0 0 8 -3 18 -7 16
-6 16 11 -1 21 -20 27 -22 20 -4 -7 19 32 52 42 36 4 -8 3 -10 -4 -5 -17 10
-15 1 2 -13 12 -10 14 -8 12 12 -3 25 22 34 37 13 5 -6 7 -2 4 11 -3 13 0 26
5 30 6 3 8 1 4 -5 -3 -6 -2 -13 4 -17 5 -3 10 3 10 14 0 23 10 27 27 10 8 -8
13 -7 18 2 6 8 4 10 -5 4 -8 -5 -11 -3 -8 6 3 8 11 13 17 11 15 -3 14 21 -1
38 -7 8 -2 6 11 -5 20 -16 23 -17 18 -4 -4 14 0 17 23 15 22 -2 27 1 19 10 -7
8 -2 14 16 18 16 4 23 11 19 18 -5 7 -2 9 8 6 11 -5 14 0 12 17 -1 17 2 22 13
18 12 -5 12 -7 1 -15 -10 -7 -10 -8 2 -4 8 3 23 9 33 12 9 4 17 10 17 16 0 5
-8 4 -19 -1 -14 -8 -22 -7 -32 7 -11 14 -11 15 1 5 9 -8 19 -9 32 -2 10 5 18
7 18 3 0 -4 11 3 25 16 18 16 28 20 37 13 18 -14 65 -10 80 6 11 11 10 12 -2
6 -8 -5 -12 -5 -8 0 4 4 2 15 -5 24 -11 14 -10 15 7 1 15 -11 20 -12 23 -2 3
6 12 12 20 12 9 0 13 6 10 15 -4 8 -1 17 5 21 6 4 8 3 5 -3 -4 -6 0 -18 7 -29
13 -17 13 -16 11 8 -2 19 1 25 10 22 7 -3 16 0 21 7 5 8 3 10 -7 5 -8 -4 -5 0
5 8 11 9 24 16 29 16 4 0 5 6 0 13 -4 6 6 3 22 -7 22 -14 26 -15 17 -4 -11 14
-10 17 7 23 23 7 27 20 10 31 -14 9 31 35 46 27 5 -4 7 -3 3 2 -4 4 -2 17 4
29 7 11 13 26 13 31 1 6 6 9 13 7 7 -1 12 2 12 8 0 5 -4 10 -9 10 -13 0 -32
-26 -24 -34 4 -4 -1 -4 -12 0 -11 5 -14 9 -7 12 7 2 10 8 6 13 -3 5 0 8 7 7 7
-2 14 3 15 10 1 6 3 15 4 20 1 4 2 11 1 16 -1 5 5 4 13 -3 12 -10 14 -9 9 8
-4 15 -1 21 12 21 15 0 15 1 1 16 -9 8 -14 19 -11 24 3 5 -1 11 -7 13 -7 3 -3
6 10 6 13 1 20 5 17 11 -4 6 -11 8 -16 4 -5 -3 -1 10 10 30 12 21 16 38 11 41
-6 4 -10 1 -10 -4 0 -6 -5 -11 -11 -11 -8 0 -8 5 1 15 7 8 10 24 7 35 -3 11
-2 22 3 25 10 6 4 55 -10 69 -8 8 -11 7 -8 -3 2 -7 -3 -15 -10 -16 -7 -2 -8
-1 -2 2 5 2 7 10 3 16 -10 16 -11 47 -2 41 17 -10 1 27 -22 54 -14 15 -23 34
-21 41 3 8 0 11 -6 7 -5 -3 -13 1 -16 10 -3 8 -2 12 3 9 5 -3 13 0 17 6 4 8 3
9 -4 5 -15 -9 -55 31 -46 46 4 6 3 9 -2 6 -10 -6 -74 58 -66 67 3 3 -1 5 -10
5 -8 0 -23 9 -33 20 -10 11 -33 25 -51 32 -19 7 -34 16 -34 21 0 5 -7 6 -16 3
-15 -6 -15 -4 -3 11 10 12 10 15 1 9 -7 -4 -19 -2 -27 4 -17 15 -20 30 -4 30
5 0 7 -5 3 -12 -5 -7 -3 -8 6 -3 10 6 9 11 -5 22 -11 7 -23 13 -28 13 -4 0 -5
5 -2 11 4 6 -1 17 -11 25 -11 9 -13 13 -6 9 6 -3 12 -2 12 4 0 5 -9 13 -20 16
-11 3 -21 13 -21 21 -3 28 -4 32 -13 41 -5 5 -6 2 -2 -7 5 -8 -3 -1 -18 15
-14 17 -25 33 -26 37 0 5 -20 28 -45 54 -25 25 -42 50 -39 56 4 6 3 8 -3 5 -5
-3 -26 8 -45 26 -19 18 -38 33 -42 33 -4 1 -18 10 -30 20 -27 23 -70 49 -116
72 -19 9 -37 19 -40 22 -3 3 -12 7 -20 9 -8 3 -51 17 -96 32 -44 15 -96 30
-115 34 -46 8 -283 19 -289 12z m1114 -883 c2 -11 6 -24 8 -30 1 -7 -1 -11 -7
-10 -5 0 -9 11 -9 24 1 14 -5 22 -15 22 -14 0 -14 2 -1 10 17 11 19 9 24 -16z
m231 -44 c3 -5 2 -10 -4 -10 -5 0 -13 5 -16 10 -3 6 -2 10 4 10 5 0 13 -4 16
-10z m-229 -29 c8 6 17 9 21 5 3 -3 1 -6 -6 -6 -7 0 -9 -5 -4 -12 11 -19 12
-37 2 -44 -6 -4 -6 -11 1 -19 8 -9 8 -15 0 -20 -6 -3 -8 -10 -6 -14 3 -4 -1
-8 -8 -8 -8 0 -12 10 -10 26 1 14 3 26 4 26 9 0 5 37 -6 46 -8 6 -13 19 -13
28 1 13 2 13 6 -2 4 -14 8 -16 19 -6z m259 -71 c-3 -5 -12 -10 -18 -10 -7 0
-6 4 3 10 19 12 23 12 15 0z m-70 -373 c-7 -16 -29 -17 -42 -2 -4 4 -3 5 4 1
6 -3 18 0 25 8 16 17 21 14 13 -7z m-35 -62 c0 -2 -8 -9 -18 -14 -14 -7 -19
-6 -19 3 0 6 9 13 19 13 10 1 18 0 18 -2z m-207 -149 c6 -15 -17 -16 -30 -1
-4 4 -2 5 5 1 6 -4 12 -2 12 3 0 15 7 14 13 -3z m-227 -91 c-1 -8 -5 -17 -8
-21 -5 -4 -4 16 1 34 3 9 9 -1 7 -13z m-978 -261 c-3 -14 -5 -12 -10 9 -3 19
-2 25 4 19 6 -6 8 -18 6 -28z m142 0 c0 -8 -19 -13 -24 -6 -3 5 1 9 9 9 8 0
15 -2 15 -3z m420 -6 c0 -4 -4 -8 -9 -8 -6 0 -12 4 -15 8 -3 5 1 9 9 9 8 0 15
-4 15 -9z"/>
<path d="M3583 1905 c0 -8 4 -12 9 -9 5 3 6 10 3 15 -9 13 -12 11 -12 -6z"/>
<path d="M1696 2807 c3 -10 9 -15 12 -12 3 3 0 11 -7 18 -10 9 -11 8 -5 -6z"/>
<path d="M770 2679 c0 -5 5 -7 10 -4 6 3 10 8 10 11 0 2 -4 4 -10 4 -5 0 -10
-5 -10 -11z"/>
<path d="M3790 2086 c0 -2 7 -7 16 -10 8 -3 12 -2 9 4 -6 10 -25 14 -25 6z"/>
<path d="M1175 2030 c-3 -5 -1 -10 4 -10 6 0 11 5 11 10 0 6 -2 10 -4 10 -3 0
-8 -4 -11 -10z"/>
<path d="M3857 1869 c7 -7 15 -10 18 -7 3 3 -2 9 -12 12 -14 6 -15 5 -6 -5z"/>
<path d="M27 1759 c7 -7 15 -10 18 -7 3 3 -2 9 -12 12 -14 6 -15 5 -6 -5z"/>
<path d="M3850 1766 c0 -2 7 -7 16 -10 8 -3 12 -2 9 4 -6 10 -25 14 -25 6z"/>
<path d="M3845 1721 c-6 -11 13 -26 22 -17 4 3 0 6 -8 6 -11 0 -11 2 1 10 9 6
10 10 3 10 -6 0 -14 -4 -18 -9z"/>
<path d="M3673 1413 c0 -10 4 -10 16 -1 9 7 18 13 20 15 2 1 -5 1 -16 0 -11 0
-20 -7 -20 -14z"/>
<path d="M3638 1383 c7 -3 16 -2 19 1 4 3 -2 6 -13 5 -11 0 -14 -3 -6 -6z"/>
<path d="M3577 1353 c-10 -9 -9 -23 1 -23 5 0 9 7 9 15 0 17 -1 18 -10 8z"/>
<path d="M1155 1330 c3 -5 8 -10 11 -10 2 0 4 5 4 10 0 6 -5 10 -11 10 -5 0
-7 -4 -4 -10z"/>
<path d="M3435 1300 c-10 -11 -15 -23 -12 -27 4 -3 7 -1 7 6 0 7 7 11 14 8 10
-4 13 -1 9 9 -6 16 13 20 20 4 3 -6 4 -5 3 2 -4 20 -22 19 -41 -2z"/>
<path d="M3319 1193 c-13 -16 -12 -17 4 -4 16 13 21 21 13 21 -2 0 -10 -8 -17
-17z"/>
<path d="M2077 1053 c-4 -3 -7 -11 -7 -17 0 -6 5 -5 12 2 6 6 9 14 7 17 -3 3
-9 2 -12 -2z"/>
<path d="M3066 1052 c-2 -4 2 -16 10 -27 8 -10 14 -14 14 -8 0 7 -5 15 -10 18
-6 4 -8 11 -5 16 4 5 4 9 1 9 -3 0 -7 -3 -10 -8z"/>
<path d="M2245 1000 c-3 -5 -1 -10 4 -10 6 0 11 5 11 10 0 6 -2 10 -4 10 -3 0
-8 -4 -11 -10z"/>
<path d="M3015 1000 c-3 -6 1 -7 9 -4 18 7 21 14 7 14 -6 0 -13 -4 -16 -10z"/>
<path d="M2280 980 c-9 -6 -10 -10 -3 -10 6 0 15 5 18 10 8 12 4 12 -15 0z"/>
<path d="M2919 973 c-12 -16 -12 -17 2 -6 9 7 20 9 24 5 5 -4 5 -1 1 6 -9 16
-11 15 -27 -5z"/>
<path d="M2377 953 c3 -7 6 -13 8 -13 2 0 5 6 8 13 3 8 -1 14 -8 14 -7 0 -11
-6 -8 -14z"/>
<path d="M2470 930 c0 -5 7 -7 15 -4 8 4 15 8 15 10 0 2 -7 4 -15 4 -8 0 -15
-4 -15 -10z"/>
</g>
</svg>
